# AST/ASF file generated using VICON BodyLanguage
# -----------------------------------------------
:version 1.10
:name VICON
:units
  mass 1.0
  length 0.45
  angle deg
:documentation
   .ast/.asf automatically generated from VICON data using
   VICON BodyBuilder and BodyLanguage model FoxedUp or BRILLIANT.MOD
:root
   order TX TY TZ RX RY RZ
   axis XYZ
   position 0 0 0  
   orientation 0 0 0 
:bonedata
  begin
     id 1 
     name lhipjoint
     direction 0.575328 -0.747301 0.332475 
     length 2.40933 
     axis 0 0 0  XYZ
  end
  begin
     id 2 
     name lfemur
     direction 0.34202 -0.939693 0  
     length 7.31453  
     axis 0 0 20  XYZ
    dof rx ry rz
    limits (-160.0 20.0)
           (-70.0 70.0)
           (-60.0 70.0)
  end
  begin
     id 3 
     name ltibia
     direction 0.34202 -0.939693 0   
     length 7.82185   
     axis 0 0 20   XYZ
    dof rx
    limits (-10.0 170.0)
  end
  begin
     id 4 
     name lfoot
     direction 0.0795993 -0.218697 0.972541   
     length 2.19173   
     axis -90 7.62852e-016 20   XYZ
    dof rx rz
    limits (-45.0 90.0)
           (-70.0 20.0)
  end
  begin
     id 5 
     name ltoes
     direction 1.53537e-011 -4.21894e-011 1   
     length 1.10023   
     axis -90 7.62852e-016 20   XYZ
    dof rx
    limits (-90.0 20.0)
  end
  begin
     id 6 
     name rhipjoint
     direction -0.513884 -0.783789 0.348708   
     length 2.29716  
     axis 0 0 0  XYZ 
  end
  begin
     id 7 
     name rfemur
     direction -0.34202 -0.939693 0   
     length 7.59573   
     axis 0 0 -20   XYZ
    dof rx ry rz
    limits (-160.0 20.0)
           (-70.0 70.0)
           (-70.0 60.0)
  end
  begin
     id 8 
     name rtibia
     direction -0.34202 -0.939693 0   
     length 7.66402   
     axis 0 0 -20   XYZ
    dof rx
    limits (-10.0 170.0)
 end
 begin
     id 9 
     name rfoot
     direction -0.137793 -0.378584 0.915253   
     length 2.27056  
     axis -90 -7.62852e-016 -20   XYZ
    dof rx rz
    limits (-45.0 90.0)
           (-20.0 70.0)
  end
  begin
     id 10 
     name rtoes
     direction -1.53493e-011 -4.22159e-011 1   
     length 1.11766   
     axis -90 -7.62852e-016 -20   XYZ
    dof rx
    limits (-90.0 20.0)
  end
  begin
     id 11 
     name lowerback
     direction -0.00732775 0.998356 -0.05685   
     length 2.16513   
     axis 0 0 0   XYZ
    dof rx ry rz
    limits (-20.0 45.0)
           (-30.0 30.0)
           (-30.0 30.0)
  end
  begin
     id 12 
     name upperback
     direction 0.0218081 0.999627 -0.0164647   
     length 2.16755   
     axis 0 0 0   XYZ
    dof rx ry rz
    limits (-20.0 45.0)
           (-30.0 30.0)
           (-30.0 30.0)
  end
  begin
     id 13 
     name thorax
     direction 0.02365 0.999661 0.0108914   
     length 2.16932   
     axis 0 0 0   XYZ
    dof rx ry rz
    limits (-20.0 45.0)
           (-30.0 30.0)
           (-30.0 30.0)
  end
  begin
     id 14 
     name lowerneck
     direction -0.0523929 0.978385 0.200044   
     length 1.63877   
     axis 0 0 0   XYZ
    dof rx ry rz
    limits (-20.0 45.0)
           (-30.0 30.0)
           (-30.0 30.0)
  end
  begin
     id 15 
     name upperneck
     direction 0.0448674 0.981321 -0.187074   
     length 1.69014   
     axis 0 0 0   XYZ
    dof rx ry rz
    limits (-20.0 45.0)
           (-30.0 30.0)
           (-30.0 30.0)
  end
  begin
     id 16
     name head
     direction 0.0199089 0.996118 -0.0857429  
     length 1.70094  
     axis 0 0 0   XYZ
    dof rx ry rz
    limits (-20.0 45.0)
           (-30.0 30.0)
           (-30.0 30.0)
  end
  begin
     id 17 
     name lclavicle
     direction 0.940366 0.30191 -0.156722  
     length 3.37521  
     axis 0 0 0   XYZ
    dof ry rz
    limits (-20.0 10.0)
           (0.0 20.0)
  end
  begin
     id 18 
     name lhumerus
     direction 1 -4.4897e-011 -1.7911e-027   
     length 5.25287   
     axis 180 -30 -90   XYZ
    dof rx ry rz
    limits (-60.0 90.0)
           (-90.0 90.0)
           (-90.0 90.0)
  end
  begin
     id 19
     name lradius
     direction 1 -4.48951e-011 1.04424e-027   
     length 3.51014   
     axis 180 -30 -90   XYZ
    dof rx
    limits (-10.0 170.0)
  end
  begin
     id 20
     name lwrist
     direction 1 -4.48997e-011 -9.5942e-028   
     length 1.75507   
     axis 8.48502e-016 90 90   XYZ
    dof ry
    limits (-180.0 0.0)
 end
  begin
     id 21 
     name lhand
     direction 1 -4.48831e-011 -1.90777e-027   
     length 0.706179   
     axis 1.22306e-015 90 90   XYZ
    dof rx rz
    limits (-90.0 90.0)
           (-45.0 45.0)
  end
  begin
     id 22 
     name lfingers
     direction 1 -4.49108e-011 -3.85244e-027   
     length 0.569339   
     axis 2.44611e-015 90 90   XYZ
    dof rx
    limits (0.0 90.0)
  end
  begin
     id 23
     name lthumb
     direction 0.707107 -6.34953e-011 0.707107   
     length 0.817461   
     axis -90 45 -1.62303e-014   XYZ
    dof rx rz
    limits (-45.0 45.0)
           (-45.0 45.0)
  end
  begin
     id 24 
     name rclavicle
     direction -0.905329 0.382405 -0.184787   
     length 3.30787  
     axis 0 0 0   XYZ 
    dof ry rz
    limits (-10.0 20.0)
           (-20.0 0.0)
  end
  begin
     id 25 
     name rhumerus
     direction -1 -4.48953e-011 -9.15316e-029  
     length 5.28721   
     axis 180 30 90   XYZ
    dof rx ry rz
    limits (-90.0 60.0)
           (-90.0 90.0)
           (-90.0 90.0)
  end
  begin
     id 26 
     name rradius
     direction -1 -4.48987e-011 9.37824e-028   
     length 3.50544   
     axis 180 30 90   XYZ
    dof rx
    limits (-10.0 170.0)
  end
  begin
     id 27 
     name rwrist
     direction -1 -4.48967e-011 -9.58414e-028   
     length 1.75272   
     axis 8.48502e-016 -90 -90   XYZ
    dof ry
    limits (-180.0 0.0)
  end
  begin
     id 28
     name rhand
     direction -1 -4.48904e-011 -1.91266e-027   
     length 0.884996   
     axis 1.22306e-015 -90 -90   XYZ
    dof rx rz
    limits (-90.0 90.0)
           (-45.0 45.0)
  end
  begin
     id 29
     name rfingers
     direction -1 -4.4909e-011 -3.85015e-027   
     length 0.713507   
     axis 2.44611e-015 -90 -90   XYZ
    dof rx
    limits (0.0 90.0)
  end
  begin
     id 30
     name rthumb
     direction -0.707107 -6.34853e-011 0.707107   
     length 1.02446   
     axis -90 -45 1.62303e-014   XYZ
    dof rx rz
    limits (-45.0 45.0)
           (-45.0 45.0)
  end
:hierarchy
  begin
    root lhipjoint rhipjoint lowerback
    lhipjoint lfemur
    lfemur ltibia
    ltibia lfoot
    lfoot ltoes
    rhipjoint rfemur
    rfemur rtibia
    rtibia rfoot
    rfoot rtoes
    lowerback upperback
    upperback thorax
    thorax lowerneck lclavicle rclavicle
    lowerneck upperneck
    upperneck head
    lclavicle lhumerus
    lhumerus lradius
    lradius lwrist
    lwrist lhand lthumb
    lhand lfingers
    rclavicle rhumerus
    rhumerus rradius
    rradius rwrist
    rwrist rhand rthumb
    rhand rfingers
  end

#!OML:ASF F:\twosubjects\two\Thursday\Session 1\justin.ASF
:FULLY-SPECIFIED
:DEGREES
34
root -5.77553 17.8577 -4.61902 6.05662 6.32715 2.62955
lowerback -1.83132 -4.7271 -3.53588
upperback -1.93703 -6.26588 5.03462
thorax -0.0312885 -3.10775 7.05375
lowerneck -22.6239 -2.14542 -7.66432
upperneck 20.3738 -1.20222 3.38648
head 10.3278 -0.7449 2.28804
rclavicle 7.43455e-014 -2.22639e-014
rhumerus -27.2098 36.5948 -89.4325
rradius 97.3927
rwrist 19.7439
rhand -38.806 35.4375
rfingers 7.12502
rthumb -11.8166 5.79087
lclavicle 7.43455e-014 -2.22639e-014
lhumerus -22.9608 -47.6311 106.937
lradius 96.0241
lwrist 56.8305
lhand -8.2733 54.8589
lfingers 7.12502
lthumb -162.354 264.078
rfemur -31.4075 -3.64486 22.0063
rtibia 27.3191
rfoot -5.33506 -7.26163
rtoes -1.21773
lfemur 8.05394 3.0371 -25.4469
ltibia 18.6024
lfoot -5.98107 -10.4657
ltoes -34.6456
35
root -5.77477 17.8767 -4.47566 5.96197 6.25801 2.35134
lowerback -1.65149 -4.51922 -3.23689
upperback -1.94961 -5.99125 5.1153
thorax -0.206928 -2.96578 6.99936
lowerneck -22.875 -2.19562 -7.36556
upperneck 20.8258 -1.16335 2.62876
head 10.5316 -0.804898 1.97618
rclavicle 3.3197e-014 -6.36111e-015
rhumerus -26.9009 36.4571 -89.1957
rradius 97.9001
rwrist 20.4592
rhand -37.0595 34.7763
rfingers 7.12502
rthumb -10.1321 5.04021
lclavicle 3.3197e-014 -6.36111e-015
lhumerus -23.15 -46.8884 106.777
lradius 96.6945
lwrist 56.61
lhand -7.65817 52.4216
lfingers 7.12502
lthumb -161.762 261.587
rfemur -31.0135 -3.62585 22.4448
rtibia 27.6694
rfoot -5.48565 -7.37323
rtoes -0.917578
lfemur 7.48397 3.18777 -24.8619
ltibia 20.2298
lfoot -4.15116 -11.685
ltoes -34.3251
36
root -5.76811 17.897 -4.32113 5.67895 6.50016 2.09098
lowerback -1.43169 -4.44362 -2.89212
upperback -1.90886 -5.89379 5.16935
thorax -0.330124 -2.91625 6.88241
lowerneck -22.9572 -2.18784 -7.11483
upperneck 21.2368 -1.05667 1.94684
head 10.6887 -0.829911 1.70792
rclavicle -2.36554e-014 -4.77083e-014
rhumerus -26.6283 36.5857 -89.0524
rradius 98.5422
rwrist 20.8747
rhand -35.9017 33.1915
rfingers 7.12502
rthumb -9.01493 3.40414
lclavicle -2.36554e-014 -4.77083e-014
lhumerus -23.2237 -45.8747 106.398
lradius 97.4493
lwrist 56.4516
lhand -13.3231 52.1374
lfingers 7.12502
lthumb -167.218 261.726
rfemur -30.2421 -3.62707 22.6577
rtibia 27.9071
rfoot -5.87696 -7.78515
rtoes 0.622405
lfemur 6.9887 2.89486 -24.2796
ltibia 22.08
lfoot -1.52669 -12.6513
ltoes -31.7297
37
root -5.75947 17.9202 -4.1671 5.78412 6.36752 2.29385
lowerback -1.65529 -4.24978 -3.01017
upperback -1.90895 -5.63184 5.07189
thorax -0.240589 -2.78569 6.83748
lowerneck -23.1274 -2.22969 -7.30783
upperneck 21.8883 -1.03226 1.95381
head 10.9626 -0.846827 1.75126
rclavicle 1.70955e-014 -2.22639e-014
rhumerus -26.631 36.5719 -89.0875
rradius 99.1828
rwrist 21.3072
rhand -35.1081 31.978
rfingers 7.12502
rthumb -8.24906 2.159
lclavicle 1.70955e-014 -2.22639e-014
lhumerus -23.2096 -45.0845 105.837
lradius 98.2015
lwrist 56.388
lhand -8.56256 53.0746
lfingers 7.12502
lthumb -162.633 262.319
rfemur -29.83 -3.63375 22.4202
rtibia 27.9151
rfoot -5.97382 -7.52185
rtoes 2.38657
lfemur 5.89817 2.7814 -24.3063
ltibia 24.2486
lfoot 0.790256 -13.6427
ltoes -29.3504
38
root -5.75993 17.9431 -4.03664 5.94596 6.0057 1.91519
lowerback -1.71549 -3.87583 -2.59654
upperback -1.99236 -5.13073 5.10395
thorax -0.396173 -2.53005 6.65502
lowerneck -22.9249 -2.31971 -7.74252
upperneck 22.1885 -1.12939 2.35727
head 11.0476 -0.882842 1.95854
rclavicle 2.08724e-014 -7.95139e-015
rhumerus -26.6057 36.4367 -89.1794
rradius 99.5516
rwrist 21.6315
rhand -34.745 31.1558
rfingers 7.12502
rthumb -7.89866 1.32341
lclavicle 2.08724e-014 -7.95139e-015
lhumerus -23.2344 -44.7302 105.261
lradius 98.9127
lwrist 56.4534
lhand -10.3397 52.0629
lfingers 7.12502
lthumb -164.344 261.449
rfemur -29.6125 -3.29339 22.8923
rtibia 27.8235
rfoot -5.89765 -7.0704
rtoes 3.38982
lfemur 4.48143 2.91903 -23.673
ltibia 26.5128
lfoot 2.60637 -14.6694
ltoes -29.3089
39
root -5.75943 17.9641 -3.90664 5.75877 5.93437 0.866389
lowerback -1.44308 -3.61554 -1.48443
upperback -2.05156 -4.78277 5.36363
thorax -0.723642 -2.35478 6.33151
lowerneck -22.7723 -2.3 -8.08231
upperneck 22.505 -1.02541 2.47248
head 11.1356 -0.857816 2.0773
rclavicle -4.9398e-014 5.08889e-014
rhumerus -26.355 36.6908 -89.0826
rradius 99.7995
rwrist 21.5619
rhand -33.9335 29.446
rfingers 7.12502
rthumb -7.11533 -0.414355
lclavicle -4.9398e-014 5.08889e-014
lhumerus -23.2396 -44.1031 104.755
lradius 99.4827
lwrist 56.2757
lhand -8.47964 52.4977
lfingers 7.12502
lthumb -162.553 261.735
rfemur -28.9816 -2.8933 24.0705
rtibia 27.7328
rfoot -6.0975 -7.15749
rtoes 2.61256
lfemur 3.30203 3.01302 -22.1975
ltibia 28.8507
lfoot 3.8449 -15.9632
ltoes -31.1288
40
root -5.75236 17.9785 -3.76613 5.64476 5.94696 0.230147
lowerback -1.49453 -3.42179 -0.740404
upperback -1.98454 -4.52798 5.51847
thorax -0.700629 -2.23417 6.0726
lowerneck -23.6626 -2.27904 -7.22523
upperneck 23.6697 -0.800936 0.984141
head 11.7279 -0.902002 1.42823
rclavicle -6.36111e-015 5.24792e-014
rhumerus -25.9393 36.9748 -88.7944
rradius 99.88
rwrist 21.887
rhand -33.4809 28.5959
rfingers 7.12502
rthumb -6.67844 -1.27874
lclavicle -6.36111e-015 5.24792e-014
lhumerus -23.1931 -43.4838 104.247
lradius 100.156
lwrist 55.7539
lhand -3.27372 54.1488
lfingers 7.12502
lthumb -157.549 262.864
rfemur -28.3276 -2.94871 24.8417
rtibia 27.5889
rfoot -6.49491 -7.14099
rtoes 0.951141
lfemur 2.09105 2.90538 -21.1964
ltibia 31.2685
lfoot 5.172 -17.2913
ltoes -31.56
41
root -5.74827 17.9889 -3.63409 5.7064 5.77625 0.0339498
lowerback -1.61 -3.11131 -0.456741
upperback -1.96289 -4.11685 5.47145
thorax -0.682155 -2.03036 5.86334
lowerneck -24.4901 -2.40315 -6.63408
upperneck 24.8935 -0.837059 0.0517483
head 12.3631 -1.0191 0.972586
rclavicle 3.89618e-014 -4.77083e-014
rhumerus -25.685 36.995 -88.7785
rradius 100.147
rwrist 21.6605
rhand -32.3042 27.9296
rfingers 7.12502
rthumb -5.54245 -1.97796
lclavicle 3.89618e-014 -4.77083e-014
lhumerus -23.2672 -43.408 103.741
lradius 100.972
lwrist 55.1304
lhand -5.82491 51.7027
lfingers 7.12502
lthumb -159.999 260.693
rfemur -27.901 -3.05128 25.1724
rtibia 27.5209
rfoot -6.81635 -6.94258
rtoes -0.769813
lfemur 0.673171 2.79955 -20.7268
ltibia 33.6219
lfoot 7.0616 -18.4556
ltoes -30.3329
42
root -5.74475 18.0025 -3.51513 5.66366 5.57193 -0.221235
lowerback -1.3225 -2.85934 -0.164354
upperback -2.03602 -3.76921 5.50098
thorax -0.971967 -1.85266 5.75526
lowerneck -24.0364 -2.33182 -7.70815
upperneck 24.9643 -0.773141 1.42978
head 12.3088 -0.904782 1.69062
rclavicle -1.62506e-014 -2.54444e-014
rhumerus -25.4483 37.3928 -88.8117
rradius 100.117
rwrist 21.5139
rhand -31.6607 27.3836
rfingers 7.12502
rthumb -4.92114 -2.53928
lclavicle -1.62506e-014 -2.54444e-014
lhumerus -23.3111 -43.1212 103.203
lradius 101.634
lwrist 54.3875
lhand -0.471687 54.0521
lfingers 7.12502
lthumb -154.861 262.417
rfemur -27.464 -3.03068 25.5276
rtibia 27.6246
rfoot -7.14872 -6.85982
rtoes -1.4408
lfemur -0.741102 2.77863 -20.1533
ltibia 35.9093
lfoot 9.72497 -19.4977
ltoes -27.4788
43
root -5.7357 18.0095 -3.39147 5.53552 5.59098 -0.435602
lowerback -1.11437 -2.758 0.126638
upperback -1.96544 -3.6299 5.57055
thorax -1.04345 -1.78518 5.67447
lowerneck -23.5324 -2.04045 -8.26303
upperneck 24.529 -0.406221 2.12322
head 12.021 -0.688674 2.10529
rclavicle 2.95692e-014 -4.77083e-015
rhumerus -24.9332 38.2908 -88.6871
rradius 100.124
rwrist 20.9166
rhand -30.9099 26.7501
rfingers 7.12502
rthumb -4.19617 -3.18827
lclavicle 2.95692e-014 -4.77083e-015
lhumerus -23.0158 -42.5744 102.384
lradius 102.189
lwrist 53.8561
lhand -2.0771 53.5669
lfingers 7.12502
lthumb -156.401 262.139
rfemur -26.948 -3.50737 25.8426
rtibia 27.7377
rfoot -7.75957 -6.44431
rtoes -1.8794
lfemur -2.00609 2.5857 -19.607
ltibia 38.2078
lfoot 12.6111 -20.1428
ltoes -22.6362
44
root -5.72788 18.0078 -3.25823 5.28131 5.72721 -0.778864
lowerback -1.06055 -2.61815 0.608373
upperback -1.77016 -3.44975 5.56242
thorax -0.918473 -1.70307 5.39068
lowerneck -22.9606 -1.93756 -7.58316
upperneck 23.9217 -0.292344 1.15184
head 11.669 -0.689534 1.6387
rclavicle 7.25564e-015 3.81667e-014
rhumerus -24.3351 38.6997 -88.5826
rradius 100.068
rwrist 20.761
rhand -30.2183 26.3842
rfingers 7.12502
rthumb -3.5283 -3.5663
lclavicle 7.25564e-015 3.81667e-014
lhumerus -22.5746 -42.4508 101.36
lradius 102.742
lwrist 53.5866
lhand -2.38781 52.3572
lfingers 7.12502
lthumb -156.699 260.967
rfemur -26.2559 -4.06977 26.2843
rtibia 27.7911
rfoot -8.46567 -6.03051
rtoes -2.91263
lfemur -3.07116 2.23278 -18.9228
ltibia 40.5091
lfoot 14.6316 -20.718
ltoes -17.4766
